<?xml version="1.0" encoding="utf-8"?>
<!-- Generator: Adobe Illustrator 16.0.0, SVG Export Plug-In . SVG Version: 6.00 Build 0)  -->
<!DOCTYPE svg PUBLIC "-//W3C//DTD SVG 1.1//EN" "http://www.w3.org/Graphics/SVG/1.1/DTD/svg11.dtd">
<svg version="1.1" id="Layer_1" xmlns="http://www.w3.org/2000/svg" xmlns:xlink="http://www.w3.org/1999/xlink" x="0px" y="0px"
	 width="30px" height="30px" viewBox="0 0 30 30" enable-background="new 0 0 30 30" xml:space="preserve">
<path fill="#FFFFFF" enable-background="new    " d="M30,25.441C30,27.959,27.959,30,25.441,30H4.559C2.041,30,0,27.959,0,25.441
	V4.559C0,2.041,2.041,0,4.559,0h20.882C27.959,0,30,2.041,30,4.559V25.441z"/>
<path fill="#E61263" d="M23.014,17.331l0.484-3.762h-3.725v-2.401c0-1.089,0.304-1.831,1.865-1.831l1.989-0.002V5.972
	c-0.344-0.046-1.524-0.148-2.901-0.148c-2.873,0-4.838,1.753-4.838,4.973v2.773h-3.248v3.762h3.248v9.65h3.885v-9.65L23.014,17.331
	L23.014,17.331z"/>
</svg>
