<?xml version="1.0" encoding="utf-8"?>
<!-- Generator: Adobe Illustrator 16.0.0, SVG Export Plug-In . SVG Version: 6.00 Build 0)  -->
<!DOCTYPE svg PUBLIC "-//W3C//DTD SVG 1.1//EN" "http://www.w3.org/Graphics/SVG/1.1/DTD/svg11.dtd">
<svg version="1.1" id="Layer_1" xmlns="http://www.w3.org/2000/svg" xmlns:xlink="http://www.w3.org/1999/xlink" x="0px" y="0px"
	 width="30px" height="30px" viewBox="0 0 30 30" enable-background="new 0 0 30 30" xml:space="preserve">
<path fill="#FFFFFF" enable-background="new    " d="M30,25.441C30,27.959,27.959,30,25.441,30H4.559C2.041,30,0,27.959,0,25.441
	V4.559C0,2.041,2.041,0,4.559,0h20.882C27.959,0,30,2.041,30,4.559V25.441z"/>
<g>
	<path fill="#E61263" d="M16.171,6.469c0.165,0.103,0.351,0.251,0.556,0.448c0.198,0.205,0.393,0.458,0.58,0.755
		c0.182,0.282,0.344,0.614,0.483,0.999c0.114,0.383,0.173,0.831,0.173,1.343c-0.016,0.938-0.223,1.689-0.622,2.252
		c-0.194,0.273-0.401,0.525-0.62,0.755c-0.242,0.23-0.5,0.465-0.772,0.704c-0.157,0.162-0.302,0.345-0.435,0.55
		c-0.156,0.213-0.234,0.46-0.234,0.742c0,0.274,0.08,0.5,0.24,0.678c0.137,0.171,0.27,0.32,0.397,0.449l0.89,0.729
		c0.553,0.453,1.037,0.949,1.455,1.497c0.393,0.555,0.596,1.278,0.613,2.175c0,1.271-0.563,2.396-1.686,3.378
		c-1.162,1.017-2.842,1.539-5.037,1.574c-1.838-0.019-3.209-0.409-4.115-1.175c-0.913-0.717-1.371-1.571-1.371-2.567
		c0-0.483,0.148-1.026,0.447-1.622c0.287-0.595,0.81-1.119,1.567-1.57c0.848-0.483,1.741-0.809,2.676-0.971
		c0.927-0.136,1.695-0.213,2.308-0.229c-0.189-0.25-0.358-0.516-0.506-0.797c-0.173-0.274-0.259-0.606-0.259-0.99
		c0-0.232,0.032-0.426,0.098-0.579c0.058-0.164,0.112-0.313,0.161-0.451c-0.298,0.034-0.58,0.051-0.843,0.051
		c-1.397-0.018-2.461-0.457-3.193-1.318c-0.767-0.803-1.15-1.736-1.15-2.802c0-1.288,0.543-2.456,1.629-3.506
		c0.745-0.613,1.521-1.013,2.324-1.202c0.796-0.162,1.542-0.243,2.237-0.243h5.245l-1.62,0.946h-1.617V6.469z M17.184,21.566
		c0-0.666-0.217-1.244-0.649-1.739c-0.46-0.468-1.178-1.044-2.155-1.728c-0.168-0.019-0.363-0.025-0.589-0.025
		c-0.134-0.016-0.476,0-1.026,0.051c-0.543,0.077-1.099,0.2-1.668,0.371c-0.133,0.052-0.32,0.129-0.563,0.23
		c-0.242,0.111-0.488,0.27-0.739,0.474c-0.242,0.213-0.447,0.479-0.613,0.794c-0.192,0.333-0.287,0.734-0.287,1.203
		c0,0.922,0.416,1.681,1.251,2.277c0.794,0.598,1.879,0.903,3.257,0.922c1.236-0.019,2.18-0.291,2.831-0.819
		C16.866,23.057,17.184,22.387,17.184,21.566z M13.527,13.879c0.69-0.026,1.266-0.274,1.726-0.745
		c0.223-0.333,0.365-0.674,0.429-1.026c0.039-0.35,0.059-0.645,0.059-0.884c0-1.034-0.265-2.078-0.794-3.128
		c-0.248-0.503-0.575-0.915-0.979-1.23c-0.414-0.298-0.889-0.457-1.427-0.475c-0.711,0.018-1.301,0.304-1.772,0.859
		c-0.397,0.582-0.588,1.231-0.569,1.949c0,0.948,0.276,1.935,0.832,2.961c0.27,0.479,0.615,0.884,1.041,1.217
		C12.494,13.713,12.98,13.879,13.527,13.879z"/>
	<polygon fill="#E61263" points="26.514,8.389 23.762,8.389 23.762,5.636 22.43,5.636 22.43,8.389 19.677,8.389 19.677,9.722 
		22.43,9.722 22.43,12.474 23.762,12.474 23.762,9.722 26.514,9.722 	"/>
</g>
</svg>
