<?xml version="1.0" encoding="utf-8"?>
<!-- Generator: Adobe Illustrator 16.0.0, SVG Export Plug-In . SVG Version: 6.00 Build 0)  -->
<!DOCTYPE svg PUBLIC "-//W3C//DTD SVG 1.1//EN" "http://www.w3.org/Graphics/SVG/1.1/DTD/svg11.dtd">
<svg version="1.1" id="Layer_1" xmlns="http://www.w3.org/2000/svg" xmlns:xlink="http://www.w3.org/1999/xlink" x="0px" y="0px"
	 width="30px" height="30px" viewBox="0 0 30 30" enable-background="new 0 0 30 30" xml:space="preserve">
<path fill="#FFFFFF" enable-background="new    " d="M30,25.441C30,27.959,27.959,30,25.441,30H4.559C2.042,30,0,27.959,0,25.441
	V4.559C0,2.041,2.042,0,4.559,0h20.882C27.959,0,30,2.041,30,4.559V25.441z"/>
<path fill="#E61263" d="M14.662,5.552c-5.412,0-9.8,4.387-9.8,9.799c0,4.012,2.413,7.459,5.866,8.976
	c-0.028-0.687-0.005-1.507,0.17-2.25c0.189-0.798,1.261-5.341,1.261-5.341s-0.313-0.625-0.313-1.55c0-1.451,0.843-2.536,1.891-2.536
	c0.89,0,1.321,0.669,1.321,1.47c0,0.896-0.572,2.237-0.865,3.478c-0.246,1.039,0.521,1.887,1.545,1.887
	c1.857,0,3.107-2.383,3.107-5.209c0-2.146-1.447-3.754-4.078-3.754c-2.972,0-4.824,2.216-4.824,4.691
	c0,0.854,0.252,1.457,0.646,1.923c0.182,0.215,0.207,0.301,0.14,0.545c-0.045,0.182-0.153,0.615-0.199,0.787
	c-0.066,0.249-0.266,0.338-0.491,0.245c-1.369-0.558-2.006-2.058-2.006-3.743c0-2.783,2.347-6.122,7.003-6.122
	c3.74,0,6.204,2.708,6.204,5.614c0,3.844-2.14,6.717-5.289,6.717c-1.059,0-2.053-0.572-2.393-1.222c0,0-0.57,2.257-0.689,2.692
	c-0.208,0.754-0.615,1.512-0.987,2.1c0.881,0.26,1.812,0.402,2.777,0.402c5.41,0,9.798-4.389,9.798-9.8
	C24.46,9.939,20.072,5.552,14.662,5.552z"/>
</svg>
