<?xml version="1.0" encoding="utf-8"?>
<!-- Generator: Adobe Illustrator 16.0.0, SVG Export Plug-In . SVG Version: 6.00 Build 0)  -->
<!DOCTYPE svg PUBLIC "-//W3C//DTD SVG 1.1//EN" "http://www.w3.org/Graphics/SVG/1.1/DTD/svg11.dtd">
<svg version="1.1" id="Layer_1" xmlns="http://www.w3.org/2000/svg" xmlns:xlink="http://www.w3.org/1999/xlink" x="0px" y="0px"
	 width="30px" height="30px" viewBox="0 0 30 30" enable-background="new 0 0 30 30" xml:space="preserve">
<path fill="#FFFFFF" enable-background="new    " d="M30,25.441C30,27.959,27.958,30,25.439,30H4.559C2.041,30,0,27.959,0,25.441
	V4.559C0,2.041,2.041,0,4.559,0h20.88C27.958,0,30,2.041,30,4.559V25.441z"/>
<path fill="#E61263" d="M25.717,9.509c-0.705,0.313-1.463,0.524-2.257,0.619c0.812-0.486,1.435-1.256,1.728-2.174
	c-0.758,0.45-1.599,0.777-2.494,0.954c-0.717-0.765-1.739-1.241-2.869-1.241c-2.172,0-3.932,1.76-3.932,3.93
	c0,0.309,0.035,0.608,0.103,0.896c-3.267-0.163-6.162-1.728-8.101-4.106c-0.338,0.581-0.531,1.256-0.531,1.977
	c0,1.362,0.693,2.566,1.747,3.271c-0.644-0.021-1.25-0.197-1.779-0.491v0.049c0,1.904,1.354,3.493,3.152,3.854
	c-0.33,0.09-0.678,0.139-1.035,0.139c-0.253,0-0.5-0.024-0.74-0.07c0.5,1.563,1.951,2.697,3.671,2.729
	c-1.344,1.055-3.038,1.684-4.881,1.684c-0.316,0-0.63-0.02-0.937-0.055c1.738,1.112,3.805,1.764,6.025,1.764
	c7.229,0,11.182-5.986,11.182-11.181c0-0.17-0.004-0.34-0.011-0.51C24.523,10.99,25.188,10.298,25.717,9.509z"/>
</svg>
